<?xml version="1.0" encoding="utf-8"?>
<svg viewBox="0 0 133.53 133.53" xmlns="http://www.w3.org/2000/svg">
  <defs>
    <clipPath id="circle-mask">
      <circle cx="103.246" cy="110.668" r="48.019"/>
    </clipPath>
  </defs>
  <g transform="matrix(0.702105, 0, 0, 0.666769, -6.07213, -36.333611)" style="">
    <image clip-path="url(#circle-mask)" width="133.53" height="133.53" transform="matrix(1 0 0 1 36.0972 88.6981)"/>
    <path d="m36.097 155.46v-66.763h133.53v133.53h-133.53zm64.558 32.367v-30.162h-60.325v60.325h60.325zm-49.111 6.0142c-0.86573-0.15897-1.6056-0.38361-1.6441-0.49919-0.11682-0.35047 0.63535-2.8378 1.2802-4.2336 1.3349-2.8892 3.2226-4.8786 5.8185-6.1322 1.8569-0.89668 3.0867-1.1786 5.1169-1.1729 1.8168 5e-3 3.4369 0.38961 5.3206 1.2628 1.7603 0.81604 2.4916 1.3123 4.6324 3.144 0.9172 0.78476 2.2715 1.7353 3.0168 2.1175 4.958 2.5421 9.6262 0.31525 11.403-5.4396 0.25464-0.82462 0.48608-1.5282 0.51431-1.5634 0.0449-0.0562 2.6343 0.36123 3.7301 0.60128 0.54297 0.11895 0.51209 0.48402-0.22865 2.7037-0.81662 2.447-1.7731 4.0375-3.4168 5.6818-2.0232 2.0239-4.0055 3.0067-6.7616 3.3523-3.6893 0.46259-7.2927-0.86892-11.045-4.0814-2.5678-2.1981-4.1407-3.0349-6.3007-3.3521-3.2602-0.47875-5.9981 1.1435-7.7136 4.5704-0.45384 0.90659-0.82561 1.7395-0.82615 1.8509-5.3e-4 0.11141-0.0837 0.50021-0.18468 0.86402-0.21448 0.77231-0.25337 0.77698-2.7113 0.32563zm76.666 23.946c0.038-0.1139 0.87543-0.30561 1.9109-0.43744 1.0138-0.12907 2.1761-0.36018 2.583-0.51357 1.5137-0.57074 2.6193-2.2056 3.0588-4.523 0.0874-0.4609 0.3209-2.6067 0.51887-4.7684 0.71518-7.8094 1.6446-11.603 3.5653-14.55 0.9598-1.473 2.7107-3.6382 3.7427-4.6282 0.34849-0.33433 0.63362-0.67843 0.63362-0.76467 0-0.0862-0.46833-0.68582-1.0407-1.3324-5.163-5.8321-6.6506-9.698-7.5114-19.52-0.33217-3.7903-0.53367-5.0204-1.0007-6.1088-0.66708-1.5547-2.0128-2.3598-4.4519-2.6635-0.78613-0.0979-6.7673-0.21074-13.291-0.25078l-11.862-0.0728v60.337h11.539c8.5363 0 11.556-0.0528 11.606-0.20276zm37.18-29.96v-30.162h-13.67c-8.4243 0-13.67 0.0637-13.67 0.16597 0 0.0913 0.0742 0.21186 0.16497 0.26794 0.26919 0.16637 0.90559 2.0259 1.1796 3.4466 0.14032 0.72761 0.41288 3.0295 0.6057 5.1153 0.89997 9.7357 1.8893 11.93 8.6634 19.214l1.7282 1.8584-2.4839 2.4685c-2.7546 2.7375-4.3764 4.7573-5.1073 6.3606-1.0686 2.344-1.6832 5.5093-2.1911 11.285-0.44347 5.0426-0.83957 6.9084-1.9188 9.038-0.25536 0.50392-0.46428 0.95854-0.46428 1.0103 0 0.0517 6.1119 0.0941 13.582 0.0941h13.582zm-98.7-34.555c0.054-0.0874-0.13303-0.70254-0.41564-1.367-0.6397-1.5041-0.96711-3.2143-1.3288-6.9408-0.41151-4.2399-0.60724-5.7288-0.97395-7.4083-0.94627-4.334-2.8306-7.4143-7.625-12.465l-1.9111-2.0132 2.0387-1.9599c5.8212-5.5962 6.8163-7.8882 7.758-17.87 0.50707-5.3744 0.86022-7.092 1.8758-9.1231 0.27754-0.55506 0.50462-1.0512 0.50462-1.1024 0-0.05127-5.9134-0.09323-13.141-0.09323h-13.141v60.501h13.131c7.5989 0 13.172-0.0669 13.229-0.15888zm33.966-30.18v-30.162h-12.068c-7.2313 0-12.092 0.06538-12.127 0.16313-0.0323 0.08972-0.85255 0.24824-1.8227 0.35226-3.046 0.3266-4.5676 1.3724-5.2825 3.6308-0.39028 1.2329-0.57081 2.5012-0.89119 6.2608-0.86048 10.098-2.1007 13.498-6.7607 18.533l-1.2356 1.3351 0.89385 1.0462c5.2637 6.1605 6.8104 9.8298 7.5414 17.891 0.52817 5.8242 0.69441 6.922 1.2175 8.0399 0.79612 1.7013 2.0662 2.4258 4.653 2.6543 0.70143 0.062 1.3944 0.17902 1.5399 0.26013 0.14552 0.0811 5.6819 0.14988 12.303 0.15283l12.039 5e-3zm64.735 0v-30.162h-60.325v60.325h60.325zm-47.978 12.402c0-0.21759 17.066-32.577 17.531-33.24 0.24327-0.34731 0.26095-0.34884 0.42403-0.0365 0.0936 0.17925 3.0654 5.8028 6.6039 12.497 8.8546 16.75 10.896 20.644 10.896 20.782 0 0.0658-7.9772 0.11962-17.727 0.11962-9.7499 0-17.727-0.0549-17.727-0.12197zm28.957-4.0673c-1.2627-2.4399-10.588-20.068-10.876-20.56l-0.39369-0.67189-5.5164 10.461c-3.034 5.7538-5.5876 10.6-5.6746 10.77-0.14987 0.29243 0.44148 0.30868 11.231 0.30868 10.79 0 11.381-0.0162 11.23-0.30868z" stroke-width=".17639"/>
  </g>
</svg>