<svg width="429.51mm" height="134.41mm" version="1.1" viewBox="0 0 429.51 134.41" xmlns="http://www.w3.org/2000/svg">
 <g transform="translate(97.82 67.582)">
  <path d="m-31.057 66.826h-66.763v-133.53h133.53v133.53zm-32.367-4.2333h30.162v-60.325h-60.325v60.325zm-16.898-23.836-0.47677-0.0234-3.1481-0.57808-0.07-0.21015-0.0701-0.21015 0.74352-2.7102 0.60677-1.3132 0.60676-1.3133 0.79469-1.1137 0.7947-1.1137 1.0174-0.91249 1.0174-0.91248 3.175-1.5332 1.0276-0.20522 1.0276-0.20521 2.9486 8e-3 2.4046 0.59038 1.4417 0.66832 1.4417 0.66833 0.76318 0.52584 0.76318 0.52585 3.3287 2.848 2.705 1.3869 1.2831 0.21642 1.2831 0.21643 1.7487-0.23197 1.9227-0.71936 2.0163-1.8681 1.3339-2.2472 0.92595-2.9986 0.10266-0.1282 1.641 0.28924 1.641 0.28925 0.79375 0.1738v0.74235l-0.62552 1.8744-0.62552 1.8744-1.4538 2.4694-1.3375 1.338-1.3375 1.338-1.7217 1.0005-2.3132 0.83965-2.7782 0.34836-2.8268-0.38704-1.2465-0.42171-1.2465-0.42172-2.7321-1.6516-1.6045-1.3735-1.6045-1.3735-1.0418-0.63288-1.0418-0.63289-1.5382-0.55508-1.0744-0.15777-1.0744-0.15778-1.0106 0.16449-1.0106 0.16448-0.96087 0.43991-0.96088 0.4399-1.871 1.871-1.6503 3.2967-1e-3 0.20256-1e-3 0.20255-0.3674 1.3229-0.47678-0.0234zm63.009 23.836h11.539l0.06759-0.20276 0.06759-0.20277 1.8433-0.23468 1.8433-0.23467 0.73968-0.2789 0.73968-0.27889 0.70768-0.70769 0.70768-0.70768 0.74485-1.9908 0.15892-0.838 0.15892-0.838 0.7199-7.8609 0.73346-4.3888 0.82716-2.8544 0.74912-2.0022 1.7913-2.7491 2.2134-2.6458 1.2672-1.2157v-0.3136l-2.0815-2.3512-2.5123-3.3514-1.5506-2.9986-0.74817-1.8989-0.42411-1.6323-0.42412-1.6323-0.26657-1.8279-0.26657-1.8279-0.5565-6.35-0.37182-2.1167-0.70122-1.6342-0.94454-0.90451-1.7275-0.76388-2.8586-0.35596-23.724-0.1456v60.337zm35.204 0h13.582v-60.325h-27.34v0.33196l0.32994 0.20392 0.75949 2.0218 0.51025 2.6458 0.70113 7.5847 0.25909 1.4993 0.25909 1.4993 0.71749 2.5846 1.0382 2.2896 1.6842 2.5341 2.6267 3.1567 3.4563 3.7167-4.9678 4.937-2.1392 2.8299-0.96848 2.1244-0.89883 3.3436-0.52881 3.7042-0.27922 3.175-0.27923 3.175-0.51888 3.039-0.32819 0.9539-0.32819 0.95389-0.46428 0.91622-0.46428 0.91621v0.1882zm-98.347-64.558h13.131l0.19638-0.31776-1.0277-2.4163-0.26625-1.4111-0.26624-1.4111-0.56494-5.8208-0.18207-1.4993-0.18206-1.4993-0.32735-1.4993-0.32736-1.4993-0.55012-1.5134-0.55012-1.5134-1.0212-1.5734-1.0212-1.5734-1.122-1.3894-1.122-1.3894-3.8222-4.0264 2.0387-1.9599 2.0387-1.9599 1.1462-1.3742 1.1462-1.3742 0.61044-1.0138 0.61045-1.0138 0.3685-0.98076 0.36849-0.98077 0.32425-1.3229 0.32424-1.3229 0.2688-1.7639 0.26879-1.7639 0.28292-2.9986 0.28291-2.9986 0.25908-1.6757 0.25908-1.6757 0.28506-0.88195 0.28506-0.88194 0.50462-1.0092 0.50462-1.0092v-0.1864h-26.282v60.501zm35.156-0.18175 12.039 5e-3v-60.325h-24.136l-0.0588 0.16313-0.0588 0.16312-3.5278 0.37826-2.278 1.1476-0.48055 0.70556-0.48055 0.70555-0.559 1.7659-0.33362 2.1147-0.27807 3.2632-0.27807 3.2632-0.5422 3.7042-0.51725 2.2931-0.45851 1.4111-0.45851 1.4111-0.5827 1.1668-0.58271 1.1668-2.1052 2.7817-2.4712 2.6702 1.7877 2.0923 1.8224 2.2931 1.4282 2.1167 0.70797 1.4111 0.70796 1.4111 0.55774 1.7444 0.55774 1.7444 0.66556 3.9196 0.19994 2.2049 0.19995 2.2049 0.2555 2.3763 0.2555 2.3763 1.0131 2.1649 1.1884 0.89558 1.6827 0.56362 2.5507 0.22532 0.52917 0.29493 12.039 5e-3zm46.611 5e-3h30.162v-60.325h-60.325v60.325zm-0.08819-17.639h-17.727v-0.24393l2.4107-4.5964 2.4107-4.5964 12.455-23.563 0.25385-0.36243 0.25386-0.36243 0.34035 0.65181 12.867 24.342 4.4619 8.492v0.23923zm0-3.8806h11.389l-0.15975-0.30869-0.15975-0.30868-10.323-19.579-0.78738-1.3438-11.033 20.923-0.1582 0.30868-0.1582 0.30869zm60.237 88.371h-2.1167l0.01764-23.327 0.01762-23.327 0.12812-5.6444 0.12812-5.6444 0.14021-0.3152 0.14021-0.31521 0.99806-0.51612h1.725l2.7905 0.71021 3.8806 1.9143 3.0249 2.2914 2.9723 3.1236 1.7639 2.5821 0.0466-5.4872 0.04662-5.4872h4.2283v59.454l-4.1451-0.0994-0.09035-18.344-0.09036-18.344-0.65929-2.5235-0.65931-2.5235-0.63355-1.5334-0.63357-1.5334-1.7507-2.9031-0.73249-0.9297-0.73247-0.92969-1.7563-1.7166-2.4921-1.8722-2.98-1.4383h-0.45963v54.681h-2.1167zm72.297 0h-2.1386l0.12608-25.18 0.1261-25.18 0.41256-1.2055 0.41255-1.2056 0.58575-0.97374 0.58575-0.97373 2.1539-2.1678 0.98069-0.58575 0.98069-0.58574 2.5551-0.88858 3.2374-0.1932 2.717 0.60449 2.7866 1.3948 2.2666 2.1942 0.61831 0.97014 0.61834 0.97014 0.50524 1.3229 0.50527 1.3229 0.0581 7.4954 0.0581 7.4953-0.19409 1.1146-0.1941 1.1146-0.88576 2.0065-0.72166 1.1091-0.72166 1.1091 1.1238 1.5649 0.85002 1.8613 0.29588 1.0583 0.29587 1.0583 0.0851 11.686 0.0851 11.686h-3.8792l-0.10637-0.39688-0.10636-0.39687-0.044-10.936-0.11266-5.909-0.11266-5.909-0.94869-1.9403-0.73189-0.83887-2.9055 0.96026-4.7626 0.32023-2.0096 0.18124-2.0096 0.18123-0.15116 0.0934-0.15118 0.0934v24.497zm2.5316-28.843 0.40076-0.10009 7.7611-0.47728 0.72949-0.26803 0.72951-0.26803 0.6925-0.43716 0.69252-0.43716 1.6349-1.8184 0.40635-1.0057 0.40636-1.0057 0.057-6.9674 0.057-6.9674-0.4203-1.9403-0.3177-0.62657-0.31769-0.62657-1.6213-1.8033-1.5592-0.91372-2.2263-0.57036-2.471 0.22264-2.2902 1.1188-1.6652 1.7096-1.1599 2.3714-0.0365 10.231-0.0365 10.231 0.1534 0.44964zm-30.026 28.291-1.4993-0.0163-1.4806-0.29253-2.1456-0.86664-1.9625-1.1834-2.583-2.6983-1.2487-2.5962-0.45593-2.643v-38.629l0.23853-0.97014 0.23855-0.97014 0.71249-1.4993 0.71249-1.4993 1.342-1.3426 1.342-1.3426 3.3514-1.6022 1.9403-0.45323 3.7042 0.0368 2.8222 0.90255 1.1182 0.66366 1.1182 0.66366 1.3735 1.4306 1.3735 1.4306 0.56088 1.1752 0.56086 1.1752 0.2616 1.2546 0.26159 1.2546-0.051 7.7835-0.051 7.7836-0.50858 1.2347-0.50859 1.2347-1.5609 2.3713-1.9675 1.7536-1.4314 0.71532-1.4314 0.71531-1.0583 0.26925-1.0583 0.26924-6.5264 0.34508-2.4331 0.36314-0.30088 0.186v14.277l0.54298 1.0756 0.54296 1.0756 1.6022 1.7129 1.0426 0.52098 1.0426 0.52098 1.0089 0.20967 1.0088 0.20968 2.5876-0.1952 2.6089-1.239 1.6048-1.6512 0.41829-0.72815 0.41831-0.72814 0.19388-0.93473 0.19391-0.93472v-9.6952l4.1451 0.0994-0.0673 5.2917-0.0673 5.2917-0.24405 0.97014-0.24407 0.97014-0.64606 1.3228-0.64608 1.3228-1.426 1.426-1.426 1.426-2.9942 1.4761-2.4694 0.51668-1.4993-0.0163zm-6.3111-28.046 0.93121-0.14811 7.0703-0.33752 0.87458-0.29532 0.87459-0.29531 1.4939-0.8716 0.82298-0.91087 0.82299-0.91086 0.45853-0.97014 0.45854-0.97014 0.1064-14.576-0.57602-2.0049-0.52724-0.82854-0.52723-0.82854-0.71548-0.64639-0.71547-0.64639-2.2633-1.0591-1.095-0.13291-1.095-0.13292-2.2821 0.31554-1.874 0.85797-2.0476 1.9531-0.5141 1.0151-0.5141 1.0151-0.04927 10.778-0.04925 10.778zm75.716 28.024-6.0009 0.0884-1.3438-1.4874 0.1654-48.034 0.3834-1.9403 1.2995-2.6458 1.3389-1.3307 1.3389-1.3307 2.5058-1.2994 2.2567-0.53194h3.3514l2.2567 0.53194 2.4098 1.2663 2.3646 2.1653 1.3526 2.0912 0.7849 2.3185 0.0546 20.197 0.0546 20.197-0.19495 1.1465-0.19494 1.1465-0.68452 1.4216-0.68449 1.4216-2.2699 2.4484-1.1252 0.66613-1.1252 0.66612-2.2931 0.73992zm1.2845-4.0463 4.3636-0.073 2.2258-1.1437 0.78747-0.82185 0.78749-0.82186 0.48087-0.97831 0.48089-0.97831 0.0463-20.14 0.0463-20.14-0.35751-0.93854-0.3575-0.93854-0.61562-0.83657-0.61561-0.83656-1.8505-1.2248-2.2931-0.58532-2.7338 0.1868-1.1306 0.52905-1.1306 0.52904-0.74857 0.76646-0.7486 0.76647-0.54634 1.1465-0.54635 1.1465-0.0486 22.483-0.0487 22.483 0.1896 0.49394zm36.498 4.0682-0.91328-0.0224-2.2379-0.29028-2.216-0.73744-2.0725-1.2404-1.183-1.1684-1.183-1.1684-0.54527-1.023-0.54529-1.023-0.24627-1.1771-0.24629-1.1771-0.12464-4.2944-0.12462-4.2944h4.2866l1.4e-4 4.3656 1.4e-4 4.3656 1.003 2.1167 0.75544 0.68117 0.75542 0.68118 2.1617 1.0116 1.8987 0.36008h1.8273l2.0933-0.38233 2.1713-1.0308 0.88387-0.9671 0.88388-0.9671 0.30957-0.92808 0.30958-0.92808 0.0278-11.465-0.4212-0.79031-0.42122-0.79032-2.1562-2.1493-2.4694-1.4284-3.3514-1.2964-2.9986-1.2562-2.1167-1.2578-2.2201-1.7452-0.81285-0.99298-0.81283-0.99299-0.59969-1.2566-0.59969-1.2566-0.18658-1.742-0.18659-1.742 0.10501-5.2956 0.105-5.2956 0.28383-0.96622 0.28384-0.96621 0.55644-1.0518 0.55644-1.0518 2.3928-2.3936 1.8022-0.86728 1.8022-0.86727 2.322-0.38275h3.2492l1.3515 0.27916 1.3515 0.27917 2.1328 0.97836 1.0919 0.81106 1.0919 0.81106 1.4603 1.8474 0.42836 0.84533 0.42837 0.84532 0.26758 1.0172 0.2676 1.0172 0.11193 4.8948 0.11196 4.8948h-4.2898v-9.8918l-0.74203-1.4852-1.6392-1.7048-1.6698-0.8558-2.0203-0.52623h-2.8504l-2.0252 0.52748-1.4354 0.7323-1.5774 1.454-0.46791 0.79841-0.46789 0.79841-0.24684 6.361-0.0272 6.2517 0.43152 0.97573 0.4315 0.97572 1.8516 1.9578 2.3124 1.5318 2.1167 0.88325 1.7639 0.65715 1.7639 0.65716 1.0583 0.52979 1.0583 0.5298 1.2045 0.7766 1.2044 0.7766 1.2141 1.231 1.2141 1.231 1.6312 3.2858 0.0434 12.85-0.31692 1.0583-0.3169 1.0583-0.55496 1.0459-0.55497 1.0459-1.0788 1.0708-1.0788 1.0708-0.99786 0.5957-0.99789 0.59569-2.2322 0.81026-2.7292 0.3796-0.91329-0.0224zm-153.67-71.768h-2.0285v-57.815l1.4121-1.2758h1.7064l2.7905 0.71021 3.9259 1.9197 2.8 2.1099 3.3283 3.4711 1.7639 2.5871 0.04648-5.84 0.04648-5.84h4.0522v59.972h-4.0569v-33.351l-0.18658-1.7128-0.18657-1.7128-0.6918-3.4392-0.5464-1.6318-0.54638-1.6318-0.66955-1.3323-0.66954-1.3323-1.0656-1.5931-1.0656-1.5931-2.4354-2.2975-2.2623-1.6143-2.4625-1.2412-0.97014-0.23518v54.719zm73.024 0h-2.0273l0.0232-10.892 0.0232-10.892 0.1091-14.552 0.10911-14.552 1.6853-3.4432 1.1734-1.2439 1.1734-1.2439 1.1589-0.68158 1.1589-0.68158 2.2931-0.75386 3.205-0.20249 2.6517 0.58995 2.4336 1.1707 1.0095 0.82534 1.0094 0.82534 1.6038 2.2474 0.50443 1.1194 0.50446 1.1194 0.19775 0.93472 0.19775 0.93473v14.372l-0.2714 1.0513-0.27137 1.0513-1.0146 2.1801-1.4457 1.9148 0.60864 1.0108 0.60867 1.0108 0.37971 1.0869 0.3797 1.0869 0.15141 2.8222 0.15143 2.8222 9e-3 9.4809 9e-3 9.4809h-4.2333v-23.832l-1.0779-2.1725-0.16814-0.20259-0.16813-0.20259-2.0254 0.66871-3.175 0.33661-5.468 0.3549-1.0583 0.29244-0.0453 12.379-0.0453 12.379h-2.0273zm3.1172-29.121 0.94092-0.14421 6.5264-0.34815 1.576-0.5608 1.4522-0.85103 0.66642-0.73765 0.66643-0.73765 0.55354-1.1683 0.55355-1.1683 0.1034-14.056-0.28658-0.99751-0.28657-0.9975-0.52725-0.82854-0.52723-0.82854-0.71162-0.64289-0.7116-0.64289-2.0831-0.98516-2.2015-0.2303-1.9403 0.37089-0.97014 0.47267-0.97014 0.47266-1.6624 1.7054-1.1599 2.3714-0.1094 20.24 0.1678 0.43708zm40.54 29.121h-2.1167v-55.21h-9.8778v-1.3579l-0.11407-1.3495-0.11408-1.3495h24.443l-0.11123 0.92605-0.11123 0.92604-4e-3 2.2049h-9.8778v55.21h-2.1167zm26.431 0h-2.1441l0.0989-29.734 0.099-29.734 0.1736-0.1736 3.9167-0.20662v30.392h13.229v-30.339h4.057v59.796h-4.057v-25.4h-13.229v25.4zm74.199 0h-2.0285v-50.005l0.46002-1.3813 0.46003-1.3813 0.87111-1.3024 0.87113-1.3024 2.012-1.7996 2.8222-1.3953 1.2347-0.25835 1.2347-0.25834 1.9403-4e-3 2.2931 0.35017 3.6174 1.8026 2.4111 2.5818 0.6428 1.2232 0.64279 1.2232 0.30136 1.2147 0.30138 1.2147 0.0208 14.64-0.48804 1.9403-1.0079 2.2462-1.257 1.7497 0.80245 1.177 0.80243 1.177 0.36512 1.0427 0.36513 1.0427 0.15668 2.6614 0.15669 2.6614 0.143 19.138h-4.1836l-4e-3 -22.313-0.24251-0.9108-0.2425-0.9108-0.8098-1.6215-0.30553-0.2765-0.30552-0.2765-2.5879 0.93733-4.5861 0.32718-4.2727 0.34265-0.28899 0.1109-0.289 0.1109v24.48h-2.0285zm2.6017-28.809 0.57326-0.0975 7.0556-0.39537 1.7639-0.54898 0.84227-0.5299 0.84228-0.5299 1.2487-1.4568 0.52314-1.0949 0.52315-1.0949-0.0495-7.6364-0.0495-7.6364-0.54911-1.1465-0.54914-1.1465-1.6537-1.6585-1.8464-0.90336-2.2349-0.39366-2.301 0.38129-1.8965 0.95954-0.89075 0.94184-0.89076 0.94184-0.5171 1.1405-0.51712 1.1405v20.862zm32.059 28.809h-2.1167l0.0444-42.598 0.11012-7.7133 0.11011-7.7133 0.93872-0.93811 1.7386-0.167 2.9197 0.73833 2.7964 1.209 1.5314 0.94223 1.5314 0.94223 4.25 4.2333 1.7563 2.5978 0.21988-7.7131 0.0224-1.8962 0.0223-1.8962h4.0569v59.972h-4.2372l5e-3 -17.242 5e-3 -17.242-0.17827-1.4111-0.17828-1.4111-0.1932-0.97014-0.19318-0.97013-0.41621-1.4993-0.4162-1.4993-0.5228-1.2659-0.5228-1.2659-1.4074-2.4098-1.6839-2.2904-1.9501-1.9068-2.6654-1.9738-2.4662-1.1132-0.39688-0.11673-0.39687-0.11674v54.704h-2.1167zm-206.11-0.59871-2.1167 0.064-1.0805-0.24626-1.0804-0.24627-0.99094-0.46878-0.99092-0.46879-2.102-1.5801-1.6407-2.1826-0.80648-1.5927-0.28425-0.95806-0.28425-0.95806 0.0035-20.12 0.0035-20.12 0.16482-1.1405 0.16484-1.1405 0.65077-1.329 0.65077-1.329 3.036-3.0039 1.1579-0.56559 1.1579-0.56558 2.4467-0.57763 3.8809 0.1814 1.1464 0.38414 1.1463 0.38415 1.9403 1.0921 2.3592 2.3815 0.69855 1.4676 0.69854 1.4676 0.23855 0.97014 0.23853 0.97014v40.04l-0.23853 0.97014-0.23855 0.97014-0.69854 1.4676-0.69855 1.4676-1.1796 1.1937-1.1796 1.1937-0.86085 0.49981-0.86087 0.49981-2.3352 0.86428-2.1167 0.064zm-0.13532-4.0672 1.6286-0.068 1.9351-0.8859 1.7842-1.6689 1.0493-2.1986v-40.652l-0.55203-1.1213-0.55202-1.1213-1.7294-1.6177-2.0172-0.93924h-3.8806l-1.9564 0.91139-0.66375 0.58279-0.66377 0.58279-0.50034 0.72724-0.50036 0.72725-0.28305 0.9531-0.28303 0.9531v39.383l0.28303 0.9531 0.28305 0.95311 0.50036 0.72724 0.50034 0.72725 1.2652 1.1109 0.69791 0.35605 0.6979 0.35605 1.3284 0.33664zm144.6 4.0712-2.2931 0.0558-2.0615-0.5187-2.8774-1.4968-1.2351-1.1731-1.235-1.1731-1.3316-2.2431-0.39021-1.1465-0.39022-1.1465-0.0549-19.756-0.0549-19.756 0.19502-1.1465 0.19501-1.1465 0.71977-1.4993 0.71978-1.4993 1.5193-1.5163 1.5194-1.5163 2.6458-1.2983 1.9403-0.51567 3.8806 0.00102 2.2528 0.53105 2.8624 1.4821 1.3472 1.3416 1.3472 1.3416 1.4146 2.9714 0.47708 1.9403-0.0912 15.607-0.5629 1.6789-0.55484 1.1465-0.55485 1.1465-2.9986 3.0422-3.0416 1.464-2.6028 0.48711-5.1153 0.23286-2.906 0.33937-0.26678 0.10238-0.26681 0.10239v13.294l0.27337 1.0496 0.27338 1.0496 0.54161 0.84402 0.5416 0.84401 1.4568 1.2487 2.293 1.1237h4.0752l2.6833-1.3262 0.87192-0.95403 0.87193-0.95402 0.4231-0.85234 0.42312-0.85234 0.1764-10.936 4.1451-0.0994-6e-3 7.6841-0.16184 1.9555-0.16184 1.9555-0.72482 2.0622-0.57531 0.96667-0.57532 0.96668-1.162 1.162-1.162 1.162-1.0003 0.5957-1.0003 0.5957-1.1891 0.44609-1.1891 0.44608-2.2931 0.0557zm-7.5532-27.88 0.29607-0.11361 6.728-0.35007 2.5588-0.33788 2.2038-1.1012 0.83123-0.87579 0.83125-0.8758 0.49167-1.0012 0.49168-1.0012 0.0512-7.7375 0.0512-7.7375-1.0495-2.2427-1.6479-1.7617-1.4619-0.84531-1.8862-0.61704-3.4055 0.139-2.3098 1.0835-0.66345 0.58252-0.66347 0.58253-1.014 1.4738-0.72916 2.1645v20.686z" stroke-width=".17639"/>
 </g>
</svg>
